<svg xmlns="http://www.w3.org/2000/svg" viewBox="0 0 975.88 975.88">
<path d="M0,69.91C0,31.32,32.3,0,72.12,0H903.76c39.83,0,72.12,31.32,72.12,69.91V906c0,38.6-32.29,69.89-72.12,69.89H72.12C32.31,975.88,0,944.59,0,906V69.91Z" fill="#069"/>
<path d="M296.56,816.68V377.34h-146V816.68h146Zm-73-499.32c50.91,0,82.61-33.73,82.61-75.89-1-43.13-31.7-75.92-81.65-75.92s-82.62,32.79-82.62,75.91c0,42.16,31.69,75.9,80.7,75.9h1ZM377.39,816.68h146V571.36c0-13.11,1-26.26,4.81-35.63,10.55-26.24,34.58-53.41,74.93-53.41,52.83,0,74,40.28,74,99.35v235h146V564.78C823.14,429.83,751.11,367,655,367c-78.76,0-113.36,44-132.58,74h1v-63.7h-146c1.91,41.22,0,439.35,0,439.35Z" fill="#fff"/></svg>